HIERARCHY
ROOT Hips
{
	OFFSET 0.00000 0.00000 0.00000
	CHANNELS 6 Xposition Yposition Zposition Zrotation Yrotation Xrotation 
	JOINT LHipJoint
	{
		OFFSET 0 0 0
		CHANNELS 3 Zrotation Yrotation Xrotation
		JOINT LeftHip
		{
			OFFSET 1.32989 -1.57253 0.78074
			CHANNELS 3 Zrotation Yrotation Xrotation
			JOINT LeftKnee
			{
				OFFSET 2.24323 -6.16323 0.00000
				CHANNELS 3 Zrotation Yrotation Xrotation
				JOINT LeftAnkle
				{
					OFFSET 2.32677 -6.39275 0.00000
					CHANNELS 3 Zrotation Yrotation Xrotation
					JOINT LeftToe
					{
						OFFSET 0.18686 -0.51340 1.95973
						CHANNELS 3 Zrotation Yrotation Xrotation
						End Site
						{
							OFFSET 0.00000 -0.00000 1.02033
						}
					}
				}
			}
		}
	}
	JOINT RHipJoint
	{
		OFFSET 0 0 0
		CHANNELS 3 Zrotation Yrotation Xrotation
		JOINT RightHip
		{
			OFFSET -1.27392 -1.57253 0.78074
			CHANNELS 3 Zrotation Yrotation Xrotation
			JOINT RightKnee
			{
				OFFSET -2.19978 -6.04385 0.00000
				CHANNELS 3 Zrotation Yrotation Xrotation
				JOINT RightAnkle
				{
					OFFSET -2.29380 -6.30216 0.00000
					CHANNELS 3 Zrotation Yrotation Xrotation
					JOINT RightToe
					{
						OFFSET -0.24624 -0.67655 1.94854
						CHANNELS 3 Zrotation Yrotation Xrotation
						End Site
						{
							OFFSET -0.00000 -0.00000 1.03267
						}
					}
				}
			}
		}
	}
	JOINT lowerback
	{
		OFFSET 0 0 0
		CHANNELS 3 Zrotation Yrotation Xrotation
		JOINT Chest
		{
			OFFSET -0.05982 2.08655 0.02100
			CHANNELS 3 Zrotation Yrotation Xrotation
			JOINT Chest2
			{
				OFFSET 0.04735 2.08455 -0.01795
				CHANNELS 3 Zrotation Yrotation Xrotation
				JOINT lowerneck
				{
					OFFSET 0 0 0
					CHANNELS 3 Zrotation Yrotation Xrotation
					JOINT Neck
					{
						OFFSET -0.10038 1.43781 0.03084
						CHANNELS 3 Zrotation Yrotation Xrotation
						JOINT Head
						{
							OFFSET 0.07701 1.43632 -0.18495
							CHANNELS 3 Zrotation Yrotation Xrotation
							End Site
							{
								OFFSET 0.02744 1.45633 -0.07361
							}
						}
					}
				}
				JOINT LeftCollar
				{
					OFFSET 0 0 0
					CHANNELS 3 Zrotation Yrotation Xrotation
					JOINT LeftShoulder
					{
						OFFSET 2.75061 0.74389 0.25227
CHANNELS 3 Zrotation Xrotation Yrotation
						JOINT LeftElbow
						{
OFFSET 0 -4.369010 0.000000
CHANNELS 3 Zrotation Xrotation Yrotation
							JOINT LeftWrist
							{
OFFSET 0 -3.217370 -0.000000
CHANNELS 3 Zrotation Xrotation Yrotation
								JOINT lhand
								{
									OFFSET 0 0 0
CHANNELS 3 Zrotation Xrotation Yrotation
									JOINT LFingers
									{
OFFSET 0 -0.564310 0.000000
CHANNELS 3 Zrotation Xrotation Yrotation
										End Site
										{
OFFSET 0 -0.454960 0.000000
										}
									}
								}
								JOINT LThumb
								{
OFFSET 0 0.000000 0.000000
CHANNELS 3 Zrotation Xrotation Yrotation
									End Site
									{
OFFSET 0 -0.461910 0.461910
									}
								}
							}
						}
					}
				}
				JOINT RightCollar
				{
					OFFSET 0 0 0
					CHANNELS 3 Zrotation Yrotation Xrotation
					JOINT RightShoulder
					{
						OFFSET -2.97379 0.79094 0.48377
CHANNELS 3 Zrotation Xrotation Yrotation
						JOINT RightElbow
						{
OFFSET 0 -4.341180 -0.000000
CHANNELS 3 Zrotation Xrotation Yrotation
							JOINT RightWrist
							{
OFFSET 0 -3.095310 0.000000
CHANNELS 3 Zrotation Xrotation Yrotation
								JOINT rhand
								{
									OFFSET 0 0 0
CHANNELS 3 Zrotation Xrotation Yrotation
									JOINT RFingers
									{
OFFSET 0 -0.597450 0.000000
CHANNELS 3 Zrotation Xrotation Yrotation
										End Site
										{
OFFSET 0 -0.481680 0.000000
										}
									}
								}
								JOINT RThumb
								{
OFFSET 0 0.000000 0.000000
CHANNELS 3 Zrotation Xrotation Yrotation
									End Site
									{
OFFSET 0 -0.489030 0.489030
									}
								}
							}
						}
					}
				}
			}
		}
	}
}
MOTION
Frames: 5
Frame Time: 0.008333333333333333
9.974800 15.639700 13.563800 2.420500 -1.770100 7.250500 0.000000 0.000000 0.000000 -20.020300 -5.781300 -18.140500 4.202100 12.424600 37.250900 1.015600 12.016400 -26.858200 0.556900 -4.780200 -13.282600 0.000000 0.000000 0.000000 18.194000 20.653500 -10.262000 -3.512800 -11.482200 33.924000 -2.464000 -16.753300 -39.320900 -0.027200 -1.064300 2.925700 -4.291500 -0.105600 -11.817000 0.934800 0.390000 0.189500 3.483400 0.026100 6.811300 -2.304500 -5.220300 -24.355000 0.135400 -6.823800 31.249200 -0.908100 -3.147700 15.059400 0.000000 0.000000 0.000000 8.076600 1.046500 -40.231700 18.876300 -29.264700 4.970200 21.844900 -8.337700 -49.200400 0.000000 0.000000 0.000000 -7.125000 0.000000 0.000000 -45.540400 78.053600 36.322000 0.000000 0.000000 0.000000 -5.481800 4.099200 25.921700 -17.000200 -26.858000 -4.087400 -14.964600 -5.090200 -21.241700 0.000000 0.000000 0.000000 7.125000 0.000000 -0.000000 8.684700 8.266300 7.434000
9.978358 15.640181 13.560242 2.411557 -1.777456 7.278002 0.000000 0.000000 0.000000 -20.023906 -5.810100 -18.181945 4.202965 12.425754 37.255083 1.004686 12.066884 -26.822284 0.560169 -4.793999 -13.321881 0.000000 0.000000 0.000000 18.183182 20.689175 -10.303253 -3.512704 -11.482056 33.923423 -2.435873 -16.865423 -39.274839 -0.023594 -0.988093 2.716023 -4.299962 -0.131900 -11.853204 0.979082 0.355334 0.225752 3.530038 0.005762 6.873564 -2.396958 -5.264149 -24.457170 0.127515 -6.845532 31.297521 -0.904879 -3.167124 15.108442 0.000000 0.000000 0.000000 7.951015 0.999862 -40.213093 18.888080 -29.279413 4.975970 22.084820 -8.250819 -49.032985 0.000000 0.000000 0.000000 -7.125000 0.000000 0.000000 -44.651735 78.056918 35.573200 0.000000 0.000000 0.000000 -5.564834 4.007175 26.106905 -17.028760 -26.895647 -4.100334 -14.886758 -5.164532 -21.233286 0.000000 0.000000 0.000000 7.125000 0.000000 0.000000 8.733742 8.284138 7.473858
9.981916 15.640662 13.556684 2.402614 -1.784813 7.305504 0.000000 0.000000 0.000000 -20.027512 -5.838900 -18.223390 4.203831 12.426908 37.259266 0.993772 12.117368 -26.786368 0.563439 -4.807798 -13.361163 0.000000 0.000000 0.000000 18.172364 20.724851 -10.344506 -3.512608 -11.481912 33.922846 -2.407746 -16.977546 -39.228778 -0.019988 -0.911886 2.506345 -4.308424 -0.158200 -11.889409 1.023364 0.320668 0.262005 3.576675 -0.014576 6.935828 -2.489416 -5.307998 -24.559341 0.119630 -6.867264 31.345841 -0.901657 -3.186549 15.157483 0.000000 0.000000 0.000000 7.825429 0.953225 -40.194486 18.899859 -29.294125 4.981739 22.324740 -8.163938 -48.865570 0.000000 0.000000 0.000000 -7.125000 0.000000 0.000000 -43.763070 78.060235 34.824400 0.000000 0.000000 0.000000 -5.647869 3.915149 26.292109 -17.057319 -26.933293 -4.113267 -14.808917 -5.238864 -21.224872 0.000000 0.000000 0.000000 7.125000 0.000000 0.000000 8.782783 8.301975 7.513717
9.984899 15.641098 13.554232 2.369516 -1.794956 7.341278 0.000000 0.000000 0.000000 -20.000946 -5.857702 -18.276515 4.206289 12.430053 37.270660 0.987237 12.155554 -26.771909 0.568920 -4.830578 -13.425927 0.000000 0.000000 0.000000 18.196098 20.822905 -10.358993 -3.510565 -11.478980 33.912713 -2.392759 -17.098163 -39.253370 -0.018196 -0.870186 2.391652 -4.292687 -0.181403 -11.934992 1.070079 0.286534 0.282773 3.612253 -0.033321 6.986943 -2.555374 -5.339548 -24.663236 0.091217 -6.874574 31.405399 -0.908832 -3.199691 15.209799 0.000000 0.000000 0.000000 7.675556 0.901455 -40.040238 18.877928 -29.266721 4.971007 22.245377 -8.037330 -49.005405 0.000000 0.000000 0.000000 -7.125000 0.000000 0.000000 -44.398575 78.107705 35.401087 0.000000 0.000000 0.000000 -5.733823 3.832370 26.487887 -17.074597 -26.956031 -4.121113 -14.844109 -5.363674 -21.218847 0.000000 0.000000 0.000000 7.125000 0.000000 0.000000 8.760156 8.303842 7.493585
9.987832 15.641531 13.551876 2.334321 -1.805341 7.377771 0.000000 0.000000 0.000000 -19.971761 -5.875636 -18.330653 4.208885 12.433370 37.282680 0.981083 12.192671 -26.759312 0.574594 -4.854137 -13.492903 0.000000 0.000000 0.000000 18.222830 20.926374 -10.371157 -3.508353 -11.475807 33.901751 -2.378912 -17.219517 -39.284093 -0.016561 -0.831482 2.285202 -4.274849 -0.204337 -11.981389 1.117005 0.252445 0.302197 3.646871 -0.051928 7.037090 -2.619032 -5.370031 -24.767282 0.061023 -6.880632 31.465932 -0.916910 -3.212288 15.262399 0.000000 0.000000 0.000000 7.523575 0.849240 -39.874217 18.853070 -29.235661 4.958843 22.138302 -7.907273 -49.171906 0.000000 0.000000 0.000000 -7.125000 0.000000 0.000000 -45.166367 78.159006 36.092816 0.000000 0.000000 0.000000 -5.820031 3.750393 26.684583 -17.090897 -26.977475 -4.128517 -14.889112 -5.492865 -21.213029 0.000000 0.000000 0.000000 7.125000 0.000000 0.000000 8.731308 8.304323 7.468247
